<?xml version="1.0" standalone="no"?>
<!DOCTYPE svg PUBLIC "-//W3C//DTD SVG 20010904//EN"
 "http://www.w3.org/TR/2001/REC-SVG-20010904/DTD/svg10.dtd">
<svg version="1.0" xmlns="http://www.w3.org/2000/svg"
 width="987.000000pt" height="385.000000pt" viewBox="0 0 987.000000 385.000000"
 preserveAspectRatio="xMidYMid meet">

<g transform="translate(0.000000,385.000000) scale(0.100000,-0.100000)"
fill="#000000" stroke="none">
<path d="M9080 3821 c0 -17 27 -29 80 -36 103 -13 322 -75 406 -114 96 -45
167 -110 204 -186 21 -42 25 -65 25 -140 0 -79 -3 -97 -29 -150 -53 -106 -179
-207 -381 -305 -271 -130 -550 -193 -934 -209 -177 -7 -526 -1 -726 13 -44 4
-179 13 -300 22 -121 8 -447 32 -725 54 -1031 80 -1280 93 -1780 93 -432 1
-666 -11 -1010 -49 -366 -41 -689 -99 -1035 -189 -366 -94 -583 -171 -855
-302 -423 -203 -746 -454 -923 -717 -24 -36 -35 -42 -154 -81 -296 -98 -536
-243 -715 -433 -121 -129 -190 -253 -207 -373 -40 -296 254 -576 703 -669 139
-29 324 -42 476 -35 659 32 1251 289 1499 649 72 104 120 251 112 344 -1 7
-28 -26 -61 -75 -218 -321 -582 -530 -1179 -675 -219 -53 -353 -70 -551 -71
-433 -1 -833 141 -928 329 -29 59 -35 121 -18 203 58 275 350 506 831 656 447
139 824 146 1630 29 132 -19 393 -57 580 -84 510 -74 928 -120 1245 -136 189
-11 650 -7 805 5 316 25 706 97 918 171 276 95 575 244 743 370 51 38 54 39
180 50 631 54 1185 207 1514 416 186 119 348 263 427 380 41 60 43 62 135 93
137 47 380 170 481 242 111 79 207 182 249 266 44 89 50 200 17 288 -58 155
-271 280 -569 334 -146 27 -180 31 -180 22z m-184 -1253 c-48 -57 -155 -149
-237 -204 -353 -235 -890 -373 -1454 -374 -276 0 -497 19 -1090 96 -1274 163
-1453 179 -2020 179 -413 -1 -576 -10 -900 -50 -712 -89 -1325 -265 -1825
-524 -69 -35 -141 -73 -160 -82 -19 -10 -51 -22 -70 -25 l-34 -7 34 44 c53 68
178 195 250 254 395 321 1092 567 1844 650 496 55 1240 43 2206 -35 1466 -118
2025 -129 2650 -50 262 33 583 99 775 159 64 20 69 14 31 -31z m-4711 -612
c262 -23 505 -49 875 -97 595 -75 786 -90 1314 -98 l409 -6 -99 -52 c-374
-195 -857 -289 -1429 -279 -331 6 -510 23 -1350 126 -537 66 -651 79 -835 100
-527 58 -923 71 -1265 40 -121 -11 -240 -22 -265 -25 -62 -8 -38 5 89 49 385
134 884 225 1421 260 151 10 958 -3 1135 -18z"/>
</g>
</svg>
