<?xml version="1.0" standalone="no"?>
<!DOCTYPE svg PUBLIC "-//W3C//DTD SVG 20010904//EN"
 "http://www.w3.org/TR/2001/REC-SVG-20010904/DTD/svg10.dtd">
<svg version="1.0" xmlns="http://www.w3.org/2000/svg"
 width="902.000000pt" height="119.000000pt" viewBox="0 0 902.000000 119.000000"
 preserveAspectRatio="xMidYMid meet">

<g transform="translate(0.000000,119.000000) scale(0.100000,-0.100000)"
fill="#000000" stroke="none">
<path d="M7575 1169 c-272 -25 -603 -86 -985 -181 l-245 -60 -120 16 c-588 78
-1109 75 -1810 -10 -609 -74 -1104 -181 -2200 -474 -502 -134 -754 -196 -930
-226 -141 -25 -185 -28 -370 -28 -221 0 -297 11 -449 64 -259 89 -423 314
-347 475 49 103 165 181 344 231 39 11 56 19 49 26 -16 16 -165 -26 -258 -72
-61 -30 -96 -56 -142 -104 -78 -84 -105 -152 -100 -251 14 -268 333 -467 876
-544 402 -58 914 -23 1567 105 128 25 131 25 240 10 448 -63 944 -68 1513 -15
939 86 1901 304 3052 689 162 54 353 112 423 130 370 90 698 93 934 8 143 -52
251 -129 296 -213 31 -58 30 -173 -2 -235 -35 -67 -121 -144 -203 -184 -81
-39 -76 -58 8 -30 107 36 215 132 261 232 52 111 16 244 -94 355 -139 139
-342 224 -653 272 -125 20 -508 28 -655 14z m-1350 -275 c-20 -8 -765 -213
-1030 -284 -932 -247 -1607 -371 -2244 -410 -162 -10 -215 -9 -160 5 363 87
608 148 839 209 1017 272 1405 359 1890 425 144 20 384 48 470 54 67 5 247 6
235 1z"/>
</g>
</svg>
