<?xml version="1.0" standalone="no"?>
<!DOCTYPE svg PUBLIC "-//W3C//DTD SVG 20010904//EN"
 "http://www.w3.org/TR/2001/REC-SVG-20010904/DTD/svg10.dtd">
<svg version="1.0" xmlns="http://www.w3.org/2000/svg"
 width="902.000000pt" height="232.000000pt" viewBox="0 0 902.000000 232.000000"
 preserveAspectRatio="xMidYMid meet">

<g transform="translate(0.000000,232.000000) scale(0.100000,-0.100000)"
fill="#000000" stroke="none">
<path d="M7355 2310 c-707 -37 -1386 -189 -2585 -580 -217 -70 -514 -167 -660
-214 -1234 -396 -1889 -542 -2584 -576 -650 -32 -1169 110 -1361 371 -69 94
-89 155 -89 276 -1 77 -4 99 -13 92 -39 -33 -64 -213 -43 -312 19 -95 81 -205
157 -281 217 -217 585 -353 1128 -418 142 -16 645 -17 830 0 508 46 748 86
1240 207 646 159 1455 413 2915 914 179 62 390 132 470 156 771 234 1463 272
2094 114 119 -30 181 -35 121 -9 -167 70 -528 169 -785 214 -233 42 -568 60
-835 46z"/>
<path d="M7665 2013 c-423 -25 -783 -129 -1298 -372 -226 -107 -408 -209 -957
-536 -850 -507 -1174 -677 -1570 -820 -289 -105 -493 -148 -705 -149 -278 -1
-413 71 -450 239 -6 27 -8 28 -17 11 -16 -29 -2 -122 26 -170 51 -87 141 -144
279 -175 313 -72 760 -1 1312 209 420 160 947 450 1980 1089 427 265 458 283
635 372 354 176 727 278 1022 279 53 0 99 4 102 9 6 10 -212 25 -279 19 -22
-2 -58 -4 -80 -5z"/>
</g>
</svg>
