<?xml version="1.0" standalone="no"?>
<!DOCTYPE svg PUBLIC "-//W3C//DTD SVG 20010904//EN"
 "http://www.w3.org/TR/2001/REC-SVG-20010904/DTD/svg10.dtd">
<svg version="1.0" xmlns="http://www.w3.org/2000/svg"
 width="902.000000pt" height="270.000000pt" viewBox="0 0 902.000000 270.000000"
 preserveAspectRatio="xMidYMid meet">

<g transform="translate(0.000000,270.000000) scale(0.100000,-0.100000)"
fill="#000000" stroke="none">
<path d="M8940 2629 c-207 -284 -654 -504 -1215 -598 -395 -66 -731 -56 -1535
45 -1126 142 -1225 153 -1615 180 -287 20 -821 15 -1090 -10 -873 -81 -1560
-263 -2150 -570 -88 -46 -185 -89 -215 -96 -298 -70 -614 -228 -807 -403 -195
-177 -286 -325 -300 -487 -19 -222 172 -451 477 -573 399 -159 1008 -133 1534
67 108 41 281 132 375 196 162 111 279 236 345 368 32 63 66 190 66 241 -1 34
-2 35 -16 16 -8 -11 -33 -49 -57 -85 -90 -141 -290 -311 -497 -424 -91 -49
-315 -138 -456 -180 -484 -144 -833 -168 -1199 -81 -272 64 -446 167 -506 298
-39 86 -16 232 55 350 121 200 363 360 722 477 293 95 478 123 809 123 313 -1
376 -8 1406 -157 793 -115 1187 -150 1679 -149 669 2 1177 95 1620 298 179 83
354 182 465 265 37 27 50 31 165 40 656 56 1217 216 1560 445 175 118 334 269
404 384 61 99 44 113 -24 20z m-4990 -659 c327 -19 618 -48 1105 -110 596 -76
921 -100 1400 -100 366 -1 354 5 170 -85 -354 -173 -844 -262 -1380 -251 -361
8 -469 18 -1800 181 -920 113 -1411 129 -1863 64 -45 -7 -85 -10 -88 -6 -7 7
297 107 446 146 292 76 683 137 1035 160 176 12 773 12 975 1z"/>
</g>
</svg>
